<?xml version="1.0" encoding="UTF-8" standalone="no"?>
<!-- Created with Inkscape (http://www.inkscape.org/) -->

<svg
   width="46.999973mm"
   height="8.8788643mm"
   viewBox="0 0 46.999973 8.8788643"
   version="1.1"
   id="svg5"
   xml:space="preserve"
   inkscape:version="1.2.1 (9c6d41e410, 2022-07-14)"
   sodipodi:docname="Logo_Pfad.svg"
   xmlns:inkscape="http://www.inkscape.org/namespaces/inkscape"
   xmlns:sodipodi="http://sodipodi.sourceforge.net/DTD/sodipodi-0.dtd"
   xmlns="http://www.w3.org/2000/svg"
   xmlns:svg="http://www.w3.org/2000/svg"><sodipodi:namedview
     id="namedview7"
     pagecolor="#ffffff"
     bordercolor="#666666"
     borderopacity="1.0"
     inkscape:showpageshadow="2"
     inkscape:pageopacity="0.0"
     inkscape:pagecheckerboard="0"
     inkscape:deskcolor="#d1d1d1"
     inkscape:document-units="mm"
     showgrid="false"
     inkscape:zoom="5.1754899"
     inkscape:cx="195.44044"
     inkscape:cy="199.11159"
     inkscape:window-width="2560"
     inkscape:window-height="1361"
     inkscape:window-x="-9"
     inkscape:window-y="-9"
     inkscape:window-maximized="1"
     inkscape:current-layer="svg5" /><defs
     id="defs2" /><g
     aria-label="karlstatik"
     id="text23-6"
     style="font-size:12.3489px;font-family:Mukta;-inkscape-font-specification:Mukta-Regular;fill:#000000;fill-opacity:1;stroke-width:0.352778"
     inkscape:export-filename="karlstatik_pfad_firmenfarbe2.svg"
     inkscape:export-xdpi="300"
     inkscape:export-ydpi="300"
     transform="translate(-24.331967,-28.178519)"><path
       d="m 25.406321,34.822229 v 2.12401 h -1.074354 v -8.767718 h 1.074354 v 5.458213 l 2.333942,-2.494477 h 1.34603 l -2.383337,2.445082 2.494477,3.3589 H 27.913148 L 25.986719,34.24183 Z"
       id="path1086"
       style="fill:#000000;fill-opacity:1" /><path
       d="m 30.148315,31.66091 q 0.296374,-0.148186 0.5557,-0.259327 0.259327,-0.123489 0.518654,-0.197582 0.259327,-0.07409 0.531003,-0.11114 0.271676,-0.03705 0.592747,-0.03705 0.481607,0 0.876772,0.11114 0.407514,0.09879 0.691538,0.34577 0.296374,0.246978 0.45691,0.654491 0.160535,0.395165 0.160535,1.000261 v 3.778763 h -0.901469 l -0.135838,-0.642142 h -0.0247 q -0.382816,0.407513 -0.839725,0.580398 -0.456909,0.172885 -1.01261,0.172885 -0.419863,0 -0.777981,-0.111141 -0.345769,-0.123489 -0.605096,-0.33342 -0.259327,-0.22228 -0.407513,-0.531003 -0.135838,-0.308722 -0.135838,-0.691538 0,-0.913818 0.716236,-1.383077 0.728585,-0.481607 1.914079,-0.481607 h 1.111401 v -0.493956 q 0,-0.629794 -0.321071,-0.852074 -0.321072,-0.234629 -0.864423,-0.234629 -0.321071,0 -0.740934,0.11114 -0.407514,0.09879 -0.938516,0.395165 z m 3.297156,2.605618 -0.913818,0.0247 q -0.926168,0.0247 -1.321333,0.33342 -0.382816,0.296374 -0.382816,0.728585 0,0.259327 0.08644,0.444561 0.08644,0.172884 0.22228,0.271676 0.148187,0.09879 0.33342,0.148186 0.197583,0.03705 0.407514,0.03705 0.407514,0 0.827376,-0.185233 0.419863,-0.197583 0.740934,-0.617445 z"
       id="path1088"
       style="fill:#000000;fill-opacity:1" /><path
       d="m 36.100493,36.946239 v -5.803982 h 0.815027 l 0.185234,1.160796 q 0.209931,-0.5557 0.691538,-0.90147 0.481607,-0.345769 1.111401,-0.345769 0.321071,0 0.531003,0.0494 0.209931,0.0494 0.382815,0.123489 l -0.209931,0.950865 q -0.148187,-0.07409 -0.33342,-0.123489 -0.172885,-0.04939 -0.419863,-0.04939 -0.358118,0 -0.66684,0.123489 -0.296374,0.123489 -0.531003,0.370467 -0.22228,0.246978 -0.358118,0.617445 -0.123489,0.358118 -0.123489,0.827376 v 3.000782 z"
       id="path1090"
       style="fill:#000000;fill-opacity:1" /><path
       d="m 40.817775,36.946239 v -8.767718 h 1.062005 v 8.767718 z"
       id="path1092"
       style="fill:#000000;fill-opacity:1" /><path
       d="m 46.806992,32.22896 q -0.407514,-0.197583 -0.740934,-0.271676 -0.33342,-0.07409 -0.666841,-0.07409 -0.592747,0 -0.876772,0.22228 -0.284024,0.209931 -0.284024,0.568049 0,0.259327 0.197582,0.456909 0.197583,0.185234 0.827376,0.370467 l 0.370467,0.111141 q 0.827377,0.246978 1.247239,0.642142 0.432212,0.382816 0.432212,1.049657 0,0.790329 -0.592747,1.271936 -0.580399,0.481608 -1.630055,0.481608 -0.555701,0 -1.074354,-0.09879 -0.506305,-0.09879 -0.876772,-0.271675 l 0.259327,-0.852075 q 0.358118,0.172885 0.77798,0.284025 0.419863,0.09879 0.852074,0.09879 0.555701,0 0.876772,-0.197582 0.33342,-0.197582 0.33342,-0.654492 0,-0.395165 -0.284024,-0.5557 -0.284025,-0.172885 -0.815028,-0.33342 l -0.382815,-0.123489 q -0.802679,-0.259327 -1.197844,-0.642143 -0.382816,-0.395165 -0.382816,-1.01261 0,-0.370467 0.160536,-0.67919 0.160536,-0.308722 0.432212,-0.518653 0.284024,-0.209932 0.66684,-0.321072 0.382816,-0.123489 0.839725,-0.123489 0.432212,0 0.889121,0.08644 0.469258,0.07409 0.889121,0.259326 z"
       id="path1094"
       style="fill:#000000;fill-opacity:1" /><path
       d="m 51.684814,31.957284 h -1.704148 v 3.37125 q 0,0.432211 0.209931,0.580398 0.22228,0.148187 0.568049,0.148187 0.246978,0 0.543352,-0.0494 0.296374,-0.06174 0.518654,-0.135838 l 0.172884,0.827376 q -0.246978,0.09879 -0.629794,0.172885 -0.382815,0.07409 -0.802678,0.07409 -0.864423,0 -1.259588,-0.370467 -0.395165,-0.382815 -0.395165,-1.099052 V 31.957277 H 48.041888 V 31.14225 h 0.864423 v -1.852335 h 1.074355 v 1.852335 h 1.704148 z"
       id="path1096"
       style="fill:#000000;fill-opacity:1" /><path
       d="m 53.253128,31.66091 q 0.296373,-0.148186 0.5557,-0.259327 0.259327,-0.123489 0.518654,-0.197582 0.259327,-0.07409 0.531003,-0.11114 0.271675,-0.03705 0.592747,-0.03705 0.481607,0 0.876772,0.11114 0.407513,0.09879 0.691538,0.34577 0.296374,0.246978 0.456909,0.654491 0.160536,0.395165 0.160536,1.000261 v 3.778763 h -0.90147 l -0.135838,-0.642142 h -0.0247 q -0.382816,0.407513 -0.839726,0.580398 -0.456909,0.172885 -1.012609,0.172885 -0.419863,0 -0.777981,-0.111141 -0.345769,-0.123489 -0.605096,-0.33342 -0.259327,-0.22228 -0.407514,-0.531003 -0.135838,-0.308722 -0.135838,-0.691538 0,-0.913818 0.716236,-1.383077 0.728586,-0.481607 1.91408,-0.481607 h 1.111401 v -0.493956 q 0,-0.629794 -0.321071,-0.852074 -0.321072,-0.234629 -0.864423,-0.234629 -0.321072,0 -0.740934,0.11114 -0.407514,0.09879 -0.938517,0.395165 z m 3.297156,2.605618 -0.913819,0.0247 q -0.926167,0.0247 -1.321332,0.33342 -0.382816,0.296374 -0.382816,0.728585 0,0.259327 0.08644,0.444561 0.08644,0.172884 0.222281,0.271676 0.148186,0.09879 0.33342,0.148186 0.197582,0.03705 0.407514,0.03705 0.407513,0 0.827376,-0.185233 0.419862,-0.197583 0.740934,-0.617445 z"
       id="path1098"
       style="fill:#000000;fill-opacity:1" /><path
       d="m 62.206085,31.957284 h -1.704149 v 3.37125 q 0,0.432211 0.209932,0.580398 0.22228,0.148187 0.568049,0.148187 0.246978,0 0.543352,-0.0494 0.296373,-0.06174 0.518654,-0.135838 l 0.172884,0.827376 q -0.246978,0.09879 -0.629794,0.172885 -0.382816,0.07409 -0.802678,0.07409 -0.864423,0 -1.259588,-0.370467 -0.395165,-0.382815 -0.395165,-1.099052 V 31.957277 H 58.563159 V 31.14225 h 0.864423 v -1.852335 h 1.074354 v 1.852335 h 1.704149 z"
       id="path1100"
       style="fill:#000000;fill-opacity:1" /><path
       d="m 63.687952,36.946239 v -5.803982 h 1.086704 v 5.803982 z m 0.543352,-7.298199 q -0.284025,0 -0.493956,-0.185234 -0.197582,-0.197582 -0.197582,-0.481607 0,-0.284025 0.197582,-0.481607 0.209931,-0.197582 0.493956,-0.197582 0.271676,0 0.481607,0.197582 0.209931,0.197582 0.209931,0.481607 0,0.284025 -0.209931,0.481607 -0.209931,0.185234 -0.481607,0.185234 z"
       id="path1102"
       style="fill:#000000;fill-opacity:1" /><path
       d="m 67.540831,34.822229 v 2.12401 h -1.074354 v -8.767718 h 1.074354 v 5.458213 l 2.333942,-2.494477 h 1.34603 l -2.383337,2.445082 2.494477,3.3589 H 70.047658 L 68.121229,34.24183 Z"
       id="path1104"
       style="fill:#000000;fill-opacity:1" /></g></svg>
