<?xml version="1.0" encoding="UTF-8" standalone="no"?>
<!-- Created with Inkscape (http://www.inkscape.org/) -->

<svg
   width="49.136322mm"
   height="48.654716mm"
   viewBox="0 0 49.136322 48.654716"
   version="1.1"
   id="svg5"
   xml:space="preserve"
   inkscape:version="1.2.1 (9c6d41e410, 2022-07-14)"
   sodipodi:docname="Logo_Pfad.svg"
   xmlns:inkscape="http://www.inkscape.org/namespaces/inkscape"
   xmlns:sodipodi="http://sodipodi.sourceforge.net/DTD/sodipodi-0.dtd"
   xmlns="http://www.w3.org/2000/svg"
   xmlns:svg="http://www.w3.org/2000/svg"><sodipodi:namedview
     id="namedview7"
     pagecolor="#ffffff"
     bordercolor="#666666"
     borderopacity="1.0"
     inkscape:showpageshadow="2"
     inkscape:pageopacity="0.0"
     inkscape:pagecheckerboard="0"
     inkscape:deskcolor="#d1d1d1"
     inkscape:document-units="mm"
     showgrid="false"
     inkscape:zoom="5.1754899"
     inkscape:cx="195.44044"
     inkscape:cy="199.11159"
     inkscape:window-width="2560"
     inkscape:window-height="1361"
     inkscape:window-x="-9"
     inkscape:window-y="-9"
     inkscape:window-maximized="1"
     inkscape:current-layer="svg5" /><defs
     id="defs2" /><g
     aria-label="karlstatik"
     id="text23-6"
     style="font-size:12.3489px;font-family:Mukta;-inkscape-font-specification:Mukta-Regular;fill:#000000;fill-opacity:1;stroke-width:0.352778"
     inkscape:export-filename="karlstatik_pfad_firmenfarbe.png"
     inkscape:export-xdpi="300"
     inkscape:export-ydpi="300"
     transform="translate(-23.726868,-28.178519)"><path
       d="m 25.406321,34.822229 v 2.12401 h -1.074354 v -8.767718 h 1.074354 v 5.458213 l 2.333942,-2.494477 h 1.34603 l -2.383337,2.445082 2.494477,3.3589 H 27.913148 L 25.986719,34.24183 Z"
       id="path1086"
       style="fill:#000000;fill-opacity:1" /><path
       d="m 30.148315,31.66091 q 0.296374,-0.148186 0.5557,-0.259327 0.259327,-0.123489 0.518654,-0.197582 0.259327,-0.07409 0.531003,-0.11114 0.271676,-0.03705 0.592747,-0.03705 0.481607,0 0.876772,0.11114 0.407514,0.09879 0.691538,0.34577 0.296374,0.246978 0.45691,0.654491 0.160535,0.395165 0.160535,1.000261 v 3.778763 h -0.901469 l -0.135838,-0.642142 h -0.0247 q -0.382816,0.407513 -0.839725,0.580398 -0.456909,0.172885 -1.01261,0.172885 -0.419863,0 -0.777981,-0.111141 -0.345769,-0.123489 -0.605096,-0.33342 -0.259327,-0.22228 -0.407513,-0.531003 -0.135838,-0.308722 -0.135838,-0.691538 0,-0.913818 0.716236,-1.383077 0.728585,-0.481607 1.914079,-0.481607 h 1.111401 v -0.493956 q 0,-0.629794 -0.321071,-0.852074 -0.321072,-0.234629 -0.864423,-0.234629 -0.321071,0 -0.740934,0.11114 -0.407514,0.09879 -0.938516,0.395165 z m 3.297156,2.605618 -0.913818,0.0247 q -0.926168,0.0247 -1.321333,0.33342 -0.382816,0.296374 -0.382816,0.728585 0,0.259327 0.08644,0.444561 0.08644,0.172884 0.22228,0.271676 0.148187,0.09879 0.33342,0.148186 0.197583,0.03705 0.407514,0.03705 0.407514,0 0.827376,-0.185233 0.419863,-0.197583 0.740934,-0.617445 z"
       id="path1088"
       style="fill:#000000;fill-opacity:1" /><path
       d="m 36.100493,36.946239 v -5.803982 h 0.815027 l 0.185234,1.160796 q 0.209931,-0.5557 0.691538,-0.90147 0.481607,-0.345769 1.111401,-0.345769 0.321071,0 0.531003,0.0494 0.209931,0.0494 0.382815,0.123489 l -0.209931,0.950865 q -0.148187,-0.07409 -0.33342,-0.123489 -0.172885,-0.04939 -0.419863,-0.04939 -0.358118,0 -0.66684,0.123489 -0.296374,0.123489 -0.531003,0.370467 -0.22228,0.246978 -0.358118,0.617445 -0.123489,0.358118 -0.123489,0.827376 v 3.000782 z"
       id="path1090"
       style="fill:#000000;fill-opacity:1" /><path
       d="m 40.817775,36.946239 v -8.767718 h 1.062005 v 8.767718 z"
       id="path1092"
       style="fill:#000000;fill-opacity:1" /><path
       d="m 46.806992,32.22896 q -0.407514,-0.197583 -0.740934,-0.271676 -0.33342,-0.07409 -0.666841,-0.07409 -0.592747,0 -0.876772,0.22228 -0.284024,0.209931 -0.284024,0.568049 0,0.259327 0.197582,0.456909 0.197583,0.185234 0.827376,0.370467 l 0.370467,0.111141 q 0.827377,0.246978 1.247239,0.642142 0.432212,0.382816 0.432212,1.049657 0,0.790329 -0.592747,1.271936 -0.580399,0.481608 -1.630055,0.481608 -0.555701,0 -1.074354,-0.09879 -0.506305,-0.09879 -0.876772,-0.271675 l 0.259327,-0.852075 q 0.358118,0.172885 0.77798,0.284025 0.419863,0.09879 0.852074,0.09879 0.555701,0 0.876772,-0.197582 0.33342,-0.197582 0.33342,-0.654492 0,-0.395165 -0.284024,-0.5557 -0.284025,-0.172885 -0.815028,-0.33342 l -0.382815,-0.123489 q -0.802679,-0.259327 -1.197844,-0.642143 -0.382816,-0.395165 -0.382816,-1.01261 0,-0.370467 0.160536,-0.67919 0.160536,-0.308722 0.432212,-0.518653 0.284024,-0.209932 0.66684,-0.321072 0.382816,-0.123489 0.839725,-0.123489 0.432212,0 0.889121,0.08644 0.469258,0.07409 0.889121,0.259326 z"
       id="path1094"
       style="fill:#000000;fill-opacity:1" /><path
       d="m 51.684814,31.957284 h -1.704148 v 3.37125 q 0,0.432211 0.209931,0.580398 0.22228,0.148187 0.568049,0.148187 0.246978,0 0.543352,-0.0494 0.296374,-0.06174 0.518654,-0.135838 l 0.172884,0.827376 q -0.246978,0.09879 -0.629794,0.172885 -0.382815,0.07409 -0.802678,0.07409 -0.864423,0 -1.259588,-0.370467 -0.395165,-0.382815 -0.395165,-1.099052 V 31.957277 H 48.041888 V 31.14225 h 0.864423 v -1.852335 h 1.074355 v 1.852335 h 1.704148 z"
       id="path1096"
       style="fill:#000000;fill-opacity:1" /><path
       d="m 53.253128,31.66091 q 0.296373,-0.148186 0.5557,-0.259327 0.259327,-0.123489 0.518654,-0.197582 0.259327,-0.07409 0.531003,-0.11114 0.271675,-0.03705 0.592747,-0.03705 0.481607,0 0.876772,0.11114 0.407513,0.09879 0.691538,0.34577 0.296374,0.246978 0.456909,0.654491 0.160536,0.395165 0.160536,1.000261 v 3.778763 h -0.90147 l -0.135838,-0.642142 h -0.0247 q -0.382816,0.407513 -0.839726,0.580398 -0.456909,0.172885 -1.012609,0.172885 -0.419863,0 -0.777981,-0.111141 -0.345769,-0.123489 -0.605096,-0.33342 -0.259327,-0.22228 -0.407514,-0.531003 -0.135838,-0.308722 -0.135838,-0.691538 0,-0.913818 0.716236,-1.383077 0.728586,-0.481607 1.91408,-0.481607 h 1.111401 v -0.493956 q 0,-0.629794 -0.321071,-0.852074 -0.321072,-0.234629 -0.864423,-0.234629 -0.321072,0 -0.740934,0.11114 -0.407514,0.09879 -0.938517,0.395165 z m 3.297156,2.605618 -0.913819,0.0247 q -0.926167,0.0247 -1.321332,0.33342 -0.382816,0.296374 -0.382816,0.728585 0,0.259327 0.08644,0.444561 0.08644,0.172884 0.222281,0.271676 0.148186,0.09879 0.33342,0.148186 0.197582,0.03705 0.407514,0.03705 0.407513,0 0.827376,-0.185233 0.419862,-0.197583 0.740934,-0.617445 z"
       id="path1098"
       style="fill:#000000;fill-opacity:1" /><path
       d="m 62.206085,31.957284 h -1.704149 v 3.37125 q 0,0.432211 0.209932,0.580398 0.22228,0.148187 0.568049,0.148187 0.246978,0 0.543352,-0.0494 0.296373,-0.06174 0.518654,-0.135838 l 0.172884,0.827376 q -0.246978,0.09879 -0.629794,0.172885 -0.382816,0.07409 -0.802678,0.07409 -0.864423,0 -1.259588,-0.370467 -0.395165,-0.382815 -0.395165,-1.099052 V 31.957277 H 58.563159 V 31.14225 h 0.864423 v -1.852335 h 1.074354 v 1.852335 h 1.704149 z"
       id="path1100"
       style="fill:#000000;fill-opacity:1" /><path
       d="m 63.687952,36.946239 v -5.803982 h 1.086704 v 5.803982 z m 0.543352,-7.298199 q -0.284025,0 -0.493956,-0.185234 -0.197582,-0.197582 -0.197582,-0.481607 0,-0.284025 0.197582,-0.481607 0.209931,-0.197582 0.493956,-0.197582 0.271676,0 0.481607,0.197582 0.209931,0.197582 0.209931,0.481607 0,0.284025 -0.209931,0.481607 -0.209931,0.185234 -0.481607,0.185234 z"
       id="path1102"
       style="fill:#000000;fill-opacity:1" /><path
       d="m 67.540831,34.822229 v 2.12401 h -1.074354 v -8.767718 h 1.074354 v 5.458213 l 2.333942,-2.494477 h 1.34603 l -2.383337,2.445082 2.494477,3.3589 H 70.047658 L 68.121229,34.24183 Z"
       id="path1104"
       style="fill:#000000;fill-opacity:1" /></g><g
     aria-label="büro für 
tragwerks
planung"
     id="text31-7"
     style="font-weight:200;font-size:12.3489px;font-family:'Mukta ExtraLight';-inkscape-font-specification:Mukta-ExtraLight;fill:#d6eacc;fill-opacity:1;stroke-width:0.352778"
     transform="translate(-23.726868,-28.178519)"><path
       d="m 29.382667,46.393163 q 0,0.691538 -0.209931,1.247239 -0.197583,0.5557 -0.543352,0.950865 -0.345769,0.382816 -0.815027,0.592747 -0.469259,0.209932 -0.987912,0.209932 -0.56805,0 -0.975563,-0.148187 -0.407514,-0.160536 -0.777981,-0.493956 h -0.0247 l -0.07409,0.543352 h -0.506305 v -8.767719 h 0.642143 v 3.692321 q 0.259326,-0.284025 0.716236,-0.543352 0.469258,-0.259327 1.062005,-0.259327 0.518654,0 0.975563,0.185234 0.456909,0.185233 0.79033,0.5557 0.345769,0.370467 0.531002,0.938517 0.197583,0.5557 0.197582,1.296634 z m -0.666841,0.01235 q 0,-1.222541 -0.531002,-1.839986 -0.518654,-0.629794 -1.358379,-0.629794 -0.259327,0 -0.518654,0.08644 -0.246978,0.07409 -0.469258,0.209932 -0.222281,0.123489 -0.407514,0.296373 -0.185234,0.160536 -0.321071,0.333421 v 3.3589 q 0.246978,0.284025 0.66684,0.469258 0.432212,0.185234 0.90147,0.185234 0.407513,0 0.765632,-0.160536 0.370467,-0.160535 0.654491,-0.469258 0.284025,-0.321071 0.444561,-0.777981 0.172884,-0.469258 0.172884,-1.062005 z"
       id="path1203"
       style="fill:#d6eacc;fill-opacity:1" /><path
       d="m 34.630969,43.491172 h 0.642143 v 5.803983 h -0.456909 l -0.09879,-0.728586 h -0.0247 q -0.296374,0.321072 -0.79033,0.580399 -0.493956,0.246978 -1.160797,0.246978 -0.901469,0 -1.45717,-0.481607 -0.543351,-0.493956 -0.543351,-1.531264 v -3.889903 h 0.642142 v 3.754065 q 0,0.481607 0.111141,0.802679 0.11114,0.308722 0.308722,0.493956 0.197582,0.185233 0.469258,0.259327 0.284025,0.07409 0.605096,0.07409 0.555701,0 1.024959,-0.259327 0.481607,-0.259327 0.728585,-0.617445 z M 31.469651,41.60179 q 0,-0.246978 0.135838,-0.395165 0.148186,-0.148187 0.358118,-0.148187 0.209931,0 0.345769,0.148187 0.148187,0.148187 0.148187,0.395165 0,0.259327 -0.148187,0.407514 -0.135838,0.135838 -0.345769,0.135838 -0.209932,0 -0.358118,-0.135838 -0.135838,-0.148187 -0.135838,-0.407514 z m 2.099313,0 q 0,-0.246978 0.135838,-0.395165 0.148186,-0.148187 0.358118,-0.148187 0.209931,0 0.345769,0.148187 0.148187,0.148187 0.148187,0.395165 0,0.259327 -0.148187,0.407514 -0.135838,0.135838 -0.345769,0.135838 -0.209932,0 -0.358118,-0.135838 -0.135838,-0.148187 -0.135838,-0.407514 z"
       id="path1205"
       style="fill:#d6eacc;fill-opacity:1" /><path
       d="m 36.977253,49.295155 v -5.803983 h 0.419863 l 0.148187,1.160796 q 0.209931,-0.5557 0.716236,-0.889121 0.506305,-0.345769 1.136099,-0.345769 0.296373,0 0.518653,0.0494 0.222281,0.0494 0.34577,0.11114 l -0.123489,0.568049 q -0.148187,-0.06174 -0.333421,-0.11114 -0.185233,-0.04939 -0.432211,-0.04939 -0.358118,0 -0.67919,0.123489 -0.308722,0.123489 -0.5557,0.382816 -0.234629,0.259326 -0.382816,0.654491 -0.135838,0.382816 -0.135838,0.913819 v 3.235412 z"
       id="path1207"
       style="fill:#d6eacc;fill-opacity:1" /><path
       d="m 45.954916,46.331419 q 0,0.728585 -0.197582,1.308983 -0.197582,0.568049 -0.555701,0.963214 -0.345769,0.382816 -0.815027,0.592747 -0.469258,0.197583 -1.024959,0.197583 -0.543351,0 -1.024958,-0.185234 -0.469259,-0.197582 -0.815028,-0.568049 -0.345769,-0.370467 -0.543351,-0.913819 -0.197583,-0.5557 -0.197583,-1.271936 0,-0.728585 0.197583,-1.296635 0.209931,-0.568049 0.568049,-0.950865 0.358118,-0.395165 0.839725,-0.592747 0.481607,-0.197583 1.024959,-0.197583 0.543352,0 1.01261,0.185234 0.469258,0.185233 0.802678,0.5557 0.345769,0.370467 0.531003,0.913819 0.197582,0.543351 0.197582,1.259588 z m -0.66684,0.06174 q 0,-0.642143 -0.160536,-1.099052 -0.160536,-0.469258 -0.432211,-0.765632 -0.259327,-0.308722 -0.605097,-0.44456 -0.345769,-0.148187 -0.716236,-0.148187 -0.370467,0 -0.716236,0.148187 -0.345769,0.135838 -0.617445,0.44456 -0.271676,0.296374 -0.432211,0.765632 -0.160536,0.456909 -0.160536,1.099052 0,0.67919 0.160536,1.148448 0.172884,0.469258 0.44456,0.765632 0.271676,0.296373 0.617445,0.432211 0.358118,0.135838 0.728585,0.135838 0.370467,0 0.703887,-0.123489 0.34577,-0.135838 0.605096,-0.432212 0.271676,-0.296373 0.419863,-0.765631 0.160536,-0.481607 0.160536,-1.160797 z"
       id="path1209"
       style="fill:#d6eacc;fill-opacity:1" /><path
       d="m 52.289916,40.465691 q 0.345769,0 0.728585,0.09879 0.382816,0.08644 0.666841,0.246978 l -0.135838,0.469259 q -0.271676,-0.135838 -0.568049,-0.209932 -0.296374,-0.08644 -0.531003,-0.08644 -0.617445,0 -0.938516,0.345769 -0.308723,0.33342 -0.308723,1.173146 v 0.987912 h 1.988173 v 0.493956 h -1.988173 v 5.310027 H 50.56107 v -5.310027 h -1.062005 v -0.493956 h 1.062005 v -1.111401 q 0,-0.963215 0.45691,-1.432473 0.456909,-0.481607 1.271936,-0.481608 z"
       id="path1211"
       style="fill:#d6eacc;fill-opacity:1" /><path
       d="M 58.056857,43.491172 H 58.699 v 5.803983 h -0.456909 l -0.09879,-0.728586 h -0.0247 q -0.296374,0.321072 -0.79033,0.580399 -0.493956,0.246978 -1.160796,0.246978 -0.90147,0 -1.457171,-0.481607 -0.543351,-0.493956 -0.543351,-1.531264 v -3.889903 h 0.642143 v 3.754065 q 0,0.481607 0.11114,0.802679 0.11114,0.308722 0.308722,0.493956 0.197583,0.185233 0.469258,0.259327 0.284025,0.07409 0.605096,0.07409 0.555701,0 1.024959,-0.259327 0.481607,-0.259327 0.728585,-0.617445 z M 54.895539,41.60179 q 0,-0.246978 0.135838,-0.395165 0.148187,-0.148187 0.358118,-0.148187 0.209931,0 0.345769,0.148187 0.148187,0.148187 0.148187,0.395165 0,0.259327 -0.148187,0.407514 -0.135838,0.135838 -0.345769,0.135838 -0.209931,0 -0.358118,-0.135838 -0.135838,-0.148187 -0.135838,-0.407514 z m 2.099313,0 q 0,-0.246978 0.135838,-0.395165 0.148186,-0.148187 0.358118,-0.148187 0.209931,0 0.345769,0.148187 0.148187,0.148187 0.148187,0.395165 0,0.259327 -0.148187,0.407514 -0.135838,0.135838 -0.345769,0.135838 -0.209932,0 -0.358118,-0.135838 -0.135838,-0.148187 -0.135838,-0.407514 z"
       id="path1213"
       style="fill:#d6eacc;fill-opacity:1" /><path
       d="m 60.403157,49.295155 v -5.803983 h 0.419862 l 0.148187,1.160796 q 0.209931,-0.5557 0.716236,-0.889121 0.506305,-0.345769 1.136099,-0.345769 0.296373,0 0.518654,0.0494 0.22228,0.0494 0.345769,0.11114 l -0.123489,0.568049 q -0.148187,-0.06174 -0.33342,-0.11114 -0.185234,-0.04939 -0.432212,-0.04939 -0.358118,0 -0.679189,0.123489 -0.308723,0.123489 -0.555701,0.382816 -0.234629,0.259326 -0.382816,0.654491 -0.135838,0.382816 -0.135838,0.913819 v 3.235412 z"
       id="path1215"
       style="fill:#d6eacc;fill-opacity:1" /><path
       d="M 27.369796,56.334043 H 25.41867 v 3.803461 q 0,0.580398 0.259327,0.790329 0.259327,0.197583 0.716236,0.197583 0.358118,0 0.666841,-0.06175 0.308722,-0.07409 0.518653,-0.148186 l 0.09879,0.481607 q -0.246978,0.09879 -0.605096,0.172884 -0.358119,0.07409 -0.79033,0.07409 -0.740934,0 -1.12375,-0.34577 -0.382816,-0.358118 -0.382816,-1.074354 v -3.889903 h -1.049656 v -0.493956 h 1.049656 v -1.852335 h 0.642143 v 1.852335 h 1.951126 z"
       id="path1217"
       style="fill:#d6eacc;fill-opacity:1" /><path
       d="m 28.789936,61.64407 v -5.803983 h 0.419863 l 0.148187,1.160796 q 0.209931,-0.5557 0.716236,-0.88912 0.506305,-0.34577 1.136099,-0.34577 0.296373,0 0.518653,0.0494 0.222281,0.0494 0.34577,0.11114 l -0.123489,0.568049 q -0.148187,-0.06174 -0.333421,-0.11114 -0.185233,-0.04939 -0.432211,-0.04939 -0.358118,0 -0.67919,0.123489 -0.308722,0.123489 -0.5557,0.382816 -0.234629,0.259327 -0.382816,0.654491 -0.135838,0.382816 -0.135838,0.913819 v 3.235412 z"
       id="path1219"
       style="fill:#d6eacc;fill-opacity:1" /><path
       d="m 33.099695,56.346392 q 0.580398,-0.308723 1.062005,-0.444561 0.493956,-0.135838 1.049657,-0.135838 0.395164,0 0.740933,0.11114 0.358119,0.111141 0.617445,0.358119 0.271676,0.246978 0.419863,0.654491 0.160536,0.395165 0.160536,0.975563 v 3.778764 h -0.444561 l -0.135838,-0.765632 h -0.0247 q -0.358118,0.432211 -0.839726,0.654492 -0.481607,0.209931 -1.074354,0.209931 -0.407513,0 -0.753283,-0.11114 -0.345769,-0.123489 -0.605096,-0.345769 -0.246978,-0.222281 -0.395165,-0.531003 -0.135837,-0.321072 -0.135837,-0.703887 0,-0.45691 0.185233,-0.802679 0.185234,-0.345769 0.518654,-0.568049 0.33342,-0.234629 0.790329,-0.345769 0.469259,-0.111141 1.037308,-0.111141 h 1.23489 v -0.382815 q 0,-0.839726 -0.370467,-1.197844 -0.370467,-0.358118 -0.963214,-0.358118 -0.358118,0 -0.827376,0.11114 -0.469259,0.11114 -1.000261,0.407514 z m 3.408296,2.383337 -1.024959,0.01235 q -0.5557,0.01235 -0.950865,0.123489 -0.395165,0.09879 -0.654492,0.271676 -0.246978,0.160536 -0.358118,0.395165 -0.11114,0.22228 -0.11114,0.481607 0,0.321071 0.11114,0.5557 0.11114,0.222281 0.296374,0.370467 0.185233,0.148187 0.432211,0.222281 0.259327,0.06174 0.543352,0.06174 0.22228,0 0.456909,-0.0494 0.234629,-0.06174 0.456909,-0.172884 0.23463,-0.123489 0.444561,-0.296374 0.209931,-0.185233 0.358118,-0.44456 z"
       id="path1221"
       style="fill:#d6eacc;fill-opacity:1" /><path
       d="m 38.545574,57.766515 q 0,-0.481607 0.160535,-0.852074 0.172885,-0.382816 0.481608,-0.629794 0.308722,-0.259327 0.728585,-0.382816 0.432211,-0.135838 0.938516,-0.135838 0.22228,0 0.382816,0.0247 0.172884,0.0247 0.33342,0.0494 h 2.408036 v 0.493956 h -0.716237 l -1.074354,-0.07409 q 0.382816,0.209932 0.617445,0.617445 0.234629,0.407514 0.234629,0.876772 0,0.481607 -0.172884,0.864423 -0.160536,0.370467 -0.469259,0.629794 -0.296373,0.259327 -0.703887,0.395165 -0.407514,0.123489 -0.889121,0.123489 -0.172884,0 -0.345769,-0.01235 -0.160535,-0.01235 -0.345769,-0.0494 -0.296374,0.11114 -0.481607,0.34577 -0.185234,0.22228 -0.185234,0.469258 0,0.321071 0.23463,0.469258 0.246978,0.135838 0.617445,0.135838 h 1.506565 q 0.963214,0 1.45717,0.407514 0.493956,0.407513 0.493956,1.049656 0,0.432212 -0.197582,0.777981 -0.197582,0.358118 -0.568049,0.605096 -0.370467,0.246978 -0.90147,0.382816 -0.531003,0.135838 -1.197843,0.135838 -1.210192,0 -1.926429,-0.481607 Q 38.2492,63.533456 38.2492,62.70608 q 0,-0.456909 0.259327,-0.777981 0.271676,-0.308722 0.765632,-0.481607 -0.185234,-0.09879 -0.33342,-0.321071 -0.135838,-0.234629 -0.135838,-0.531003 0,-0.407514 0.234629,-0.66684 0.234629,-0.271676 0.543351,-0.419863 -0.197582,-0.08644 -0.382816,-0.246978 -0.185233,-0.160536 -0.33342,-0.382816 -0.148187,-0.22228 -0.234629,-0.493956 -0.08644,-0.284025 -0.08644,-0.617445 z m 1.197843,3.877555 q -0.358118,0.123489 -0.592747,0.382816 -0.22228,0.259326 -0.22228,0.605096 0,0.66684 0.543351,1.000261 0.555701,0.33342 1.432473,0.33342 0.580398,0 0.987912,-0.123489 0.419862,-0.11114 0.679189,-0.308723 0.271676,-0.185233 0.395165,-0.432211 0.123489,-0.234629 0.123489,-0.481607 0,-0.296374 -0.123489,-0.493956 -0.11114,-0.185234 -0.33342,-0.296374 -0.209932,-0.09879 -0.506305,-0.148187 -0.284025,-0.03705 -0.629794,-0.03705 z m 2.630316,-3.852857 q 0,-0.728585 -0.419863,-1.111401 -0.419863,-0.395165 -1.099052,-0.395165 -0.345769,0 -0.642143,0.09879 -0.296373,0.08644 -0.518654,0.271676 -0.22228,0.172885 -0.358118,0.444561 -0.123489,0.271675 -0.123489,0.642142 0,0.765632 0.45691,1.136099 0.456909,0.370467 1.136098,0.370467 0.67919,0 1.12375,-0.358118 0.444561,-0.358118 0.444561,-1.099051 z"
       id="path1223"
       style="fill:#d6eacc;fill-opacity:1" /><path
       d="m 44.757073,55.840087 h 0.642143 l 1.012609,3.655274 0.358118,1.605357 h 0.0247 l 0.407514,-1.605357 1.12375,-3.655274 h 0.679189 l 1.086704,3.655274 0.419862,1.605357 h 0.0247 l 0.407514,-1.605357 1.00026,-3.655274 h 0.617445 L 50.919174,61.64407 H 50.17824 l -1.111401,-3.803461 -0.407514,-1.555962 -0.419862,1.555962 -1.136099,3.803461 h -0.67919 z"
       id="path1225"
       style="fill:#d6eacc;fill-opacity:1" /><path
       d="m 57.970405,58.742078 h -4.136881 v 0.172885 q 0,1.086703 0.580398,1.704148 0.592747,0.605096 1.605357,0.605096 0.802678,0 1.506566,-0.271676 l 0.148187,0.493956 q -0.321072,0.135838 -0.777981,0.209932 -0.444561,0.08644 -0.913819,0.08644 -0.580398,0 -1.099052,-0.172885 -0.506305,-0.172884 -0.889121,-0.531002 -0.382815,-0.370467 -0.605096,-0.926168 -0.22228,-0.568049 -0.22228,-1.358379 0,-0.679189 0.185234,-1.23489 0.185233,-0.5557 0.531002,-0.938516 0.34577,-0.395165 0.815028,-0.605096 0.469258,-0.209932 1.049656,-0.209932 0.493956,0 0.90147,0.185234 0.419862,0.172884 0.703887,0.506305 0.296374,0.33342 0.456909,0.802678 0.160536,0.469258 0.160536,1.037308 z m -0.66684,-0.518654 q 0,-0.358118 -0.08644,-0.703887 -0.08644,-0.358118 -0.284024,-0.629794 -0.185234,-0.271676 -0.493956,-0.432211 -0.296374,-0.172885 -0.728586,-0.172885 -0.753282,0 -1.259587,0.506305 -0.493956,0.506305 -0.592747,1.432472 z"
       id="path1227"
       style="fill:#d6eacc;fill-opacity:1" /><path
       d="m 59.328785,61.64407 v -5.803983 h 0.419863 l 0.148187,1.160796 q 0.209931,-0.5557 0.716236,-0.88912 0.506305,-0.34577 1.136099,-0.34577 0.296373,0 0.518653,0.0494 0.222281,0.0494 0.34577,0.11114 l -0.123489,0.568049 q -0.148187,-0.06174 -0.333421,-0.11114 -0.185233,-0.04939 -0.432211,-0.04939 -0.358118,0 -0.67919,0.123489 -0.308722,0.123489 -0.5557,0.382816 -0.234629,0.259327 -0.382816,0.654491 -0.135838,0.382816 -0.135838,0.913819 v 3.235412 z"
       id="path1229"
       style="fill:#d6eacc;fill-opacity:1" /><path
       d="m 64.379494,59.520059 v 2.124011 h -0.642143 v -8.767719 h 0.642143 v 5.902774 l 2.91434,-2.939038 h 0.802679 l -2.445082,2.445082 2.556222,3.358901 h -0.765632 l -2.210453,-2.976085 z"
       id="path1231"
       style="fill:#d6eacc;fill-opacity:1" /><path
       d="m 72.443326,56.568672 q -0.617445,-0.284025 -1.34603,-0.284025 -0.666841,0 -1.000261,0.284025 -0.33342,0.271676 -0.33342,0.703887 0,0.432212 0.284024,0.666841 0.284025,0.22228 1.000261,0.432211 l 0.370467,0.11114 q 0.703888,0.209932 1.074355,0.617445 0.370467,0.407514 0.370467,1.000261 0,0.345769 -0.135838,0.654492 -0.135838,0.296373 -0.395165,0.518654 -0.259327,0.22228 -0.654492,0.345769 -0.382816,0.123489 -0.889121,0.123489 -0.5557,0 -0.975563,-0.09879 -0.419862,-0.08644 -0.740934,-0.234629 l 0.172885,-0.506305 q 0.321071,0.160535 0.66684,0.246978 0.34577,0.07409 0.815028,0.07409 0.703887,0 1.086703,-0.271676 0.382816,-0.271676 0.382816,-0.77798 0,-0.395165 -0.284025,-0.67919 -0.271676,-0.296373 -0.975563,-0.518654 l -0.395165,-0.123489 q -1.444821,-0.456909 -1.444821,-1.518914 0,-0.34577 0.135838,-0.629794 0.148187,-0.296374 0.395165,-0.493956 0.259327,-0.209932 0.605096,-0.321072 0.358118,-0.123489 0.790329,-0.123489 0.395165,0 0.815028,0.06174 0.419862,0.06174 0.765632,0.234629 z"
       id="path1233"
       style="fill:#d6eacc;fill-opacity:1" /><path
       d="m 26.493024,74.091772 q -0.407513,0 -0.765631,-0.09879 -0.358119,-0.11114 -0.617445,-0.296374 v 3.136621 h -0.642143 v -8.718323 h 0.531002 l 0.09879,0.740934 q 0.284024,-0.284025 0.716236,-0.506305 0.432211,-0.234629 1.049656,-0.234629 0.531003,0 0.975563,0.185233 0.45691,0.185234 0.79033,0.543352 0.33342,0.358118 0.518654,0.889121 0.185233,0.531002 0.185233,1.210192 0,0.815027 -0.246978,1.407774 -0.234629,0.592747 -0.642143,0.987912 -0.395164,0.382816 -0.913818,0.56805 -0.506305,0.185233 -1.037308,0.185233 z m 0.234629,-5.458214 q -0.284024,0 -0.543351,0.08644 -0.246978,0.07409 -0.456909,0.197582 -0.209932,0.123489 -0.370467,0.271676 -0.160536,0.148187 -0.246978,0.284025 v 3.692321 q 0.271675,0.209931 0.605096,0.308722 0.345769,0.09879 0.691538,0.09879 0.432211,0 0.839725,-0.135838 0.407514,-0.135837 0.716236,-0.44456 0.321072,-0.321071 0.506305,-0.815027 0.197583,-0.506305 0.197583,-1.23489 0,-1.099052 -0.481607,-1.704148 -0.469259,-0.605097 -1.457171,-0.605097 z"
       id="path1235"
       style="fill:#d6eacc;fill-opacity:1" /><path
       d="m 30.778107,73.992981 v -8.767719 h 0.642143 v 8.767719 z"
       id="path1237"
       style="fill:#d6eacc;fill-opacity:1" /><path
       d="m 33.099695,68.695303 q 0.580398,-0.308723 1.062005,-0.44456 0.493956,-0.135838 1.049657,-0.135838 0.395164,0 0.740933,0.11114 0.358119,0.11114 0.617445,0.358118 0.271676,0.246978 0.419863,0.654492 0.160536,0.395164 0.160536,0.975563 v 3.778763 h -0.444561 l -0.135838,-0.765632 h -0.0247 q -0.358118,0.432212 -0.839726,0.654492 -0.481607,0.209931 -1.074354,0.209931 -0.407513,0 -0.753283,-0.11114 -0.345769,-0.123489 -0.605096,-0.345769 -0.246978,-0.22228 -0.395165,-0.531003 -0.135837,-0.321071 -0.135837,-0.703887 0,-0.456909 0.185233,-0.802679 0.185234,-0.345769 0.518654,-0.568049 0.33342,-0.234629 0.790329,-0.345769 0.469259,-0.11114 1.037308,-0.11114 h 1.23489 V 70.18952 q 0,-0.839725 -0.370467,-1.197843 -0.370467,-0.358119 -0.963214,-0.358119 -0.358118,0 -0.827376,0.111141 -0.469259,0.11114 -1.000261,0.407513 z m 3.408296,2.383338 -1.024959,0.01235 q -0.5557,0.01235 -0.950865,0.123489 -0.395165,0.09879 -0.654492,0.271676 -0.246978,0.160536 -0.358118,0.395165 -0.11114,0.22228 -0.11114,0.481607 0,0.321072 0.11114,0.555701 0.11114,0.22228 0.296374,0.370467 0.185233,0.148186 0.432211,0.22228 0.259327,0.06174 0.543352,0.06174 0.22228,0 0.456909,-0.04939 0.234629,-0.06175 0.456909,-0.172885 0.23463,-0.123489 0.444561,-0.296373 0.209931,-0.185234 0.358118,-0.444561 z"
       id="path1239"
       style="fill:#d6eacc;fill-opacity:1" /><path
       d="m 39.48409,73.992981 h -0.642143 v -5.803983 h 0.469259 l 0.09879,0.802679 q 0.419862,-0.395165 0.901469,-0.629794 0.493956,-0.246978 1.111401,-0.246978 0.889121,0 1.383077,0.493956 0.506305,0.493956 0.506305,1.383076 v 4.001044 h -0.642143 v -3.840508 q 0,-0.321071 -0.07409,-0.592747 -0.06175,-0.284025 -0.234629,-0.481607 -0.160536,-0.209931 -0.444561,-0.321072 -0.271675,-0.123489 -0.679189,-0.123489 -0.469258,0 -0.938516,0.246978 -0.45691,0.23463 -0.815028,0.642143 z"
       id="path1241"
       style="fill:#d6eacc;fill-opacity:1" /><path
       d="m 48.931008,68.188998 h 0.642143 v 5.803983 h -0.456909 l -0.09879,-0.728585 h -0.0247 q -0.296374,0.321071 -0.79033,0.580398 -0.493956,0.246978 -1.160796,0.246978 -0.90147,0 -1.45717,-0.481607 -0.543352,-0.493956 -0.543352,-1.531264 v -3.889903 h 0.642143 v 3.754066 q 0,0.481607 0.11114,0.802678 0.11114,0.308723 0.308722,0.493956 0.197583,0.185234 0.469259,0.259327 0.284024,0.07409 0.605096,0.07409 0.5557,0 1.024958,-0.259327 0.481607,-0.259326 0.728585,-0.617445 z"
       id="path1243"
       style="fill:#d6eacc;fill-opacity:1" /><path
       d="m 51.981191,73.992981 h -0.642143 v -5.803983 h 0.469258 l 0.09879,0.802679 q 0.419862,-0.395165 0.901469,-0.629794 0.493956,-0.246978 1.111401,-0.246978 0.889121,0 1.383077,0.493956 0.506305,0.493956 0.506305,1.383076 v 4.001044 h -0.642143 v -3.840508 q 0,-0.321071 -0.07409,-0.592747 -0.06175,-0.284025 -0.234629,-0.481607 -0.160536,-0.209931 -0.444561,-0.321072 -0.271676,-0.123489 -0.679189,-0.123489 -0.469258,0 -0.938517,0.246978 -0.456909,0.23463 -0.815027,0.642143 z"
       id="path1245"
       style="fill:#d6eacc;fill-opacity:1" /><path
       d="m 57.266521,70.115426 q 0,-0.481607 0.160536,-0.852074 0.172884,-0.382816 0.481607,-0.629794 0.308722,-0.259326 0.728585,-0.382815 0.432211,-0.135838 0.938516,-0.135838 0.22228,0 0.382816,0.0247 0.172885,0.0247 0.33342,0.0494 h 2.408036 v 0.493956 h -0.716236 l -1.074355,-0.07409 q 0.382816,0.209931 0.617445,0.617445 0.23463,0.407513 0.23463,0.876772 0,0.481607 -0.172885,0.864422 -0.160536,0.370467 -0.469258,0.629794 -0.296374,0.259327 -0.703888,0.395165 -0.407513,0.123489 -0.88912,0.123489 -0.172885,0 -0.34577,-0.01235 -0.160535,-0.01235 -0.345769,-0.0494 -0.296373,0.11114 -0.481607,0.345769 -0.185233,0.22228 -0.185233,0.469258 0,0.321071 0.234629,0.469258 0.246978,0.135838 0.617445,0.135838 h 1.506566 q 0.963214,0 1.45717,0.407514 0.493956,0.407514 0.493956,1.049656 0,0.432212 -0.197583,0.777981 -0.197582,0.358118 -0.568049,0.605096 -0.370467,0.246978 -0.90147,0.382816 -0.531002,0.135838 -1.197843,0.135838 -1.210192,0 -1.926428,-0.481607 -0.716237,-0.469258 -0.716237,-1.296635 0,-0.456909 0.259327,-0.77798 0.271676,-0.308723 0.765632,-0.481607 -0.185233,-0.09879 -0.33342,-0.321072 -0.135838,-0.234629 -0.135838,-0.531003 0,-0.407513 0.234629,-0.66684 0.234629,-0.271676 0.543352,-0.419863 -0.197583,-0.08644 -0.382816,-0.246978 -0.185234,-0.160535 -0.333421,-0.382816 -0.148186,-0.22228 -0.234629,-0.493956 -0.08644,-0.284024 -0.08644,-0.617445 z m 1.197843,3.877555 q -0.358118,0.123489 -0.592747,0.382816 -0.22228,0.259327 -0.22228,0.605096 0,0.666841 0.543351,1.000261 0.555701,0.33342 1.432473,0.33342 0.580398,0 0.987912,-0.123489 0.419862,-0.11114 0.679189,-0.308722 0.271676,-0.185234 0.395165,-0.432212 0.123489,-0.234629 0.123489,-0.481607 0,-0.296374 -0.123489,-0.493956 -0.11114,-0.185233 -0.33342,-0.296374 -0.209931,-0.09879 -0.506305,-0.148186 -0.284025,-0.03705 -0.629794,-0.03705 z m 2.630316,-3.852857 q 0,-0.728585 -0.419863,-1.111401 -0.419862,-0.395165 -1.099052,-0.395165 -0.345769,0 -0.642143,0.09879 -0.296373,0.08644 -0.518653,0.271675 -0.222281,0.172885 -0.358118,0.444561 -0.123489,0.271676 -0.123489,0.642143 0,0.765631 0.456909,1.136098 0.456909,0.370467 1.136099,0.370467 0.679189,0 1.12375,-0.358118 0.44456,-0.358118 0.44456,-1.099052 z"
       id="path1247"
       style="fill:#d6eacc;fill-opacity:1" /></g></svg>
